# xmcd CD database file
#
# Track frame offsets:
#	150
#	12114
#	44161
#	67762
#	96300
#	121203
#	143976
#	167669
#	191291
#	207632
#	230478
#	255694
#	280491
#	294041
#
# Disc length: 4399 seconds
#
# Revision: 0
# Processed by: cddbd v1.5.2PL0 Copyright (c) Steve Scherf et al.
# Submitted via: CDex 1.51
#
DISCID=cc112d0e
DTITLE=Paul Kuhn and The Best - In Concert
DYEAR=2006
DGENRE=Jazz
TTITLE0=It Don't Mean A Thing
TTITLE1=Florida Flirt
TTITLE2=Angel Eyes
TTITLE3=No Greater Love
TTITLE4=My Funny Valentine
TTITLE5=It Had To Be You
TTITLE6=I Surrender
TTITLE7=London By Night
TTITLE8=Heading South
TTITLE9=Just Friends
TTITLE10=Well You Needn't
TTITLE11=Fly Me To The Moon
TTITLE12=Young At Heart
TTITLE13=Route 66
EXTD=YEAR: 2006
EXTT0=
EXTT1=
EXTT2=
EXTT3=
EXTT4=
EXTT5=
EXTT6=
EXTT7=
EXTT8=
EXTT9=
EXTT10=
EXTT11=
EXTT12=
EXTT13=
PLAYORDER=
